# Blender v2.78 (sub 0) OBJ File: 'beybladeblend.blend'
# www.blender.org
mtllib simplebeyblade.mtl
o Cube_Cube.001
v 0.000000 0.000000 -1.000000
v -0.707107 0.000000 -0.707107
v -1.000000 0.000000 0.000000
v -0.707107 0.000000 0.707107
v 0.000000 0.000000 1.000000
v 0.707107 0.000000 0.707107
v 1.000000 0.000000 -0.000000
v 0.707107 0.000000 -0.707107
v 0.000000 0.168249 -1.000000
v -0.707107 0.168249 -0.707107
v -1.000000 0.168249 0.000000
v -0.707107 0.168249 0.707107
v 0.000000 0.168249 1.000000
v 0.707107 0.168249 0.707107
v 1.000000 0.168249 -0.000000
v 0.707107 0.168249 -0.707107
v 0.000000 0.318472 -0.556699
v 0.000000 -0.092137 -0.810807
v -0.573327 -0.092137 -0.573327
v -0.810807 -0.092137 0.000000
v -0.573327 -0.092137 0.573327
v 0.000000 -0.092137 0.810807
v 0.573327 -0.092137 0.573327
v 0.810807 -0.092137 -0.000000
v 0.573327 -0.092137 -0.573327
v 0.000000 -0.616914 -0.087224
v 0.000000 -0.328487 -0.751484
v -0.531379 -0.328487 -0.531379
v -0.751484 -0.328487 0.000000
v -0.531379 -0.328487 0.531379
v 0.000000 -0.328487 0.751484
v 0.531380 -0.328487 0.531379
v 0.751484 -0.328487 -0.000000
v 0.531380 -0.328487 -0.531379
v 0.000000 -0.841247 -0.031020
v -0.061677 -0.616914 -0.061677
v -0.087224 -0.616914 -0.000000
v -0.061677 -0.616914 0.061677
v 0.000000 -0.616914 0.087224
v 0.061677 -0.616914 0.061677
v 0.087224 -0.616914 -0.000000
v 0.061677 -0.616914 -0.061677
v 0.000000 0.201632 -0.572072
v -0.021934 -0.841247 -0.021934
v -0.031020 -0.841247 -0.000000
v -0.021934 -0.841247 0.021934
v 0.000000 -0.841247 0.031020
v 0.021934 -0.841247 0.021934
v 0.031020 -0.841247 -0.000000
v 0.021934 -0.841247 -0.021934
v 0.000000 -0.841247 -0.000000
v -0.404516 0.201632 -0.404516
v -0.572072 0.201632 0.000000
v -0.404516 0.201632 0.404516
v 0.000000 0.201632 0.572072
v 0.404516 0.201632 0.404516
v 0.572072 0.201632 -0.000000
v 0.404516 0.201632 -0.404516
v -0.393646 0.318472 -0.393646
v -0.556699 0.318472 0.000000
v -0.393646 0.318472 0.393646
v 0.000000 0.318472 0.556699
v 0.393646 0.318472 0.393645
v 0.556699 0.318472 -0.000000
v 0.393646 0.318472 -0.393646
v 0.000000 0.244153 -0.471975
v 0.000000 0.318472 -0.471975
v -0.333737 0.318472 -0.333737
v -0.471975 0.318472 0.000000
v -0.333737 0.318472 0.333737
v 0.000000 0.318472 0.471975
v 0.333737 0.318472 0.333737
v 0.471975 0.318472 -0.000000
v 0.333737 0.318472 -0.333737
v 0.000000 0.363775 -0.365711
v -0.333737 0.244153 -0.333737
v -0.471975 0.244153 0.000000
v -0.333737 0.244153 0.333737
v 0.000000 0.244153 0.471975
v 0.333737 0.244153 0.333737
v 0.471975 0.244153 -0.000000
v 0.333737 0.244153 -0.333737
v 0.551866 -0.213060 0.551866
v -0.258597 0.363775 -0.258597
v -0.365711 0.363775 0.000000
v -0.258597 0.363775 0.258597
v 0.000000 0.363775 0.365711
v 0.258597 0.363775 0.258597
v 0.365711 0.363775 -0.000000
v 0.258597 0.363775 -0.258597
v 0.000000 0.403185 -0.000000
v 0.551866 -0.213060 -0.551866
v -0.551866 -0.213060 -0.551866
v 0.000000 -0.213060 -0.780456
v 0.780456 -0.213060 -0.000000
v -0.551866 -0.213060 0.551866
v 0.000000 -0.213060 0.780456
v -0.780456 -0.213060 0.000000
v -0.839517 -0.100871 -0.839517
v -0.000000 -0.100871 -1.187257
v -1.187257 -0.100871 0.000000
v -0.839517 -0.100871 0.839517
v 0.000000 -0.100871 1.187257
v 0.839517 -0.100871 0.839517
v 1.187257 -0.100871 -0.000000
v 0.839517 -0.100871 -0.839517
v -0.808091 -0.204326 -0.808091
v 1.142813 -0.204326 -0.000000
v 0.000000 -0.204326 1.142813
v -1.142813 -0.204326 0.000000
v 0.808091 -0.204326 0.808091
v 0.808091 -0.204326 -0.808091
v -0.000000 -0.204326 -1.142813
v -0.808091 -0.204326 0.808091
v 1.105196 0.067738 0.872001
v 1.115430 0.067738 0.453322
v 1.105196 0.100512 0.872001
v 1.115430 0.100512 0.453322
v 1.365114 0.067738 -0.151235
v 1.108942 0.067738 -0.524514
v 1.365114 0.100512 -0.151235
v 1.108942 0.100512 -0.524514
v 0.371597 0.067738 -1.122649
v 0.845024 0.067738 -1.040067
v 0.371597 0.100512 -1.122649
v 0.845024 0.100512 -1.040067
v -0.128761 0.067738 -1.310857
v -0.488687 0.067738 -1.061361
v -0.128761 0.100512 -1.310857
v -0.488687 0.100512 -1.061361
v -1.095268 0.067738 -0.867888
v -1.094392 0.067738 -0.454550
v -1.095268 0.100512 -0.867888
v -1.094392 0.100512 -0.454550
v -1.334546 0.067738 0.138574
v -1.091727 0.067738 0.475131
v -1.334546 0.100512 0.138574
v -1.091727 0.100512 0.475131
v -0.855513 0.067738 1.065391
v -0.412130 0.067738 1.121266
v -0.855513 0.100512 1.065391
v -0.412130 0.100512 1.121266
v 0.146144 0.067738 1.352823
v 0.556144 0.067738 1.043238
v 0.146144 0.100512 1.352823
v 0.556144 0.100512 1.043238
vn -0.1784 -0.8846 -0.4308
vn -0.4308 -0.8846 0.1784
vn 0.1784 -0.8846 0.4308
vn 0.4308 -0.8846 -0.1784
vn -0.0777 0.9965 -0.0322
vn -0.0322 0.9965 0.0777
vn 0.0777 0.9965 0.0322
vn 0.0322 0.9965 -0.0777
vn 0.1768 -0.9801 -0.0899
vn 0.1039 -0.9758 0.1926
vn -0.5165 0.0000 0.8563
vn -0.8512 0.0000 -0.5248
vn 0.0680 0.9745 -0.2137
vn 0.1951 0.9794 0.0525
vn -0.9239 0.0000 -0.3827
vn 0.3827 0.0000 -0.9239
vn -0.3728 -0.2259 0.9000
vn 0.9000 -0.2259 0.3728
vn 0.3728 -0.2259 -0.9000
vn -0.3728 -0.2259 -0.9000
vn 0.1784 -0.8846 -0.4308
vn 0.4308 -0.8846 0.1784
vn -0.1784 -0.8846 0.4308
vn -0.4308 -0.8846 -0.1784
vn -0.1628 -0.9050 -0.3930
vn -0.3930 -0.9050 0.1628
vn 0.1628 -0.9050 0.3930
vn 0.3930 -0.9050 -0.1628
vn -0.9000 -0.2259 -0.3728
vn 0.9000 -0.2259 -0.3728
vn 0.3728 -0.2259 0.9000
vn -0.9000 -0.2259 0.3728
vn -0.9001 -0.2255 0.3728
vn 0.3728 -0.2255 0.9001
vn 0.9001 -0.2255 -0.3728
vn -0.9001 -0.2255 -0.3728
vn 0.1628 -0.9050 -0.3930
vn 0.3930 -0.9050 0.1628
vn -0.1628 -0.9050 0.3930
vn -0.3930 -0.9050 -0.1628
vn 0.0000 -1.0000 0.0000
vn -0.3728 -0.2255 -0.9001
vn 0.3728 -0.2255 -0.9001
vn 0.9001 -0.2255 0.3728
vn -0.3728 -0.2255 0.9001
vn 0.9171 0.1207 0.3799
vn 0.3799 0.1207 -0.9171
vn -0.3799 0.1207 -0.9171
vn -0.9171 0.1207 0.3799
vn 0.0777 0.9965 -0.0322
vn 0.0322 0.9965 0.0777
vn -0.0777 0.9965 0.0322
vn -0.0322 0.9965 -0.0777
vn 0.0000 1.0000 0.0000
vn -0.3799 0.1207 0.9171
vn -0.9171 0.1207 -0.3799
vn 0.9171 0.1207 -0.3799
vn 0.3799 0.1207 0.9171
vn -0.3827 0.0000 -0.9239
vn -0.9239 0.0000 0.3827
vn 0.9239 0.0000 0.3827
vn -0.7142 0.6344 -0.2958
vn -0.2958 0.6344 0.7142
vn 0.7142 0.6344 0.2958
vn 0.2958 0.6344 -0.7142
vn 0.9239 0.0000 -0.3827
vn 0.3827 0.0000 0.9239
vn -0.3827 0.0000 0.9239
vn -0.0758 0.9942 -0.0758
vn -0.0758 0.9942 0.0758
vn 0.0758 0.9942 0.0758
vn 0.0758 0.9942 -0.0758
vn 0.7142 0.6344 -0.2958
vn 0.2958 0.6344 0.7142
vn -0.7142 0.6344 0.2958
vn -0.2958 0.6344 -0.7142
vn 0.0232 0.9997 -0.0096
vn 0.0232 0.9997 0.0096
vn 0.0100 -0.9997 0.0241
vn 0.0096 0.9997 0.0232
vn -0.0241 -0.9997 0.0100
vn -0.0100 -0.9997 0.0241
vn -0.0096 0.9997 0.0232
vn 0.0241 -0.9997 0.0100
vn -0.8587 -0.3689 0.3557
vn 0.3557 -0.3689 0.8587
vn 0.8587 -0.3689 -0.3557
vn -0.8587 -0.3689 -0.3557
vn -0.3557 -0.3689 -0.8587
vn 0.3557 -0.3689 -0.8587
vn 0.8587 -0.3689 0.3557
vn -0.3557 -0.3689 0.8587
vn 0.0241 -0.9997 -0.0100
vn 0.0096 0.9997 -0.0232
vn -0.0241 -0.9997 -0.0100
vn -0.0096 0.9997 -0.0232
vn -0.0100 -0.9997 -0.0241
vn -0.0232 0.9997 -0.0096
vn 0.0100 -0.9997 -0.0241
vn -0.0232 0.9997 0.0096
vn 0.9997 0.0000 0.0244
vn 0.1951 -0.9794 0.0525
vn 0.9691 0.0000 -0.2468
vn 0.8245 0.0000 -0.5658
vn 0.4137 0.0000 -0.9104
vn 0.1768 0.9801 -0.0899
vn 0.1718 0.0000 -0.9851
vn -0.3134 0.0000 -0.9496
vn 0.0680 -0.9745 -0.2137
vn -0.5697 0.0000 -0.8219
vn -0.1080 -0.9712 -0.2124
vn -0.1080 0.9712 -0.2124
vn -1.0000 0.0000 0.0021
vn -0.2059 0.9771 -0.0537
vn -0.9791 0.0000 0.2033
vn -0.2059 -0.9771 -0.0537
vn -0.8110 0.0000 0.5851
vn -0.1968 -0.9752 0.1010
vn -0.1968 0.9752 0.1010
vn -0.1250 0.0000 0.9922
vn -0.0618 0.9771 0.2038
vn 0.2823 0.0000 0.9593
vn -0.0618 -0.9771 0.2038
vn 0.6026 0.0000 0.7980
vn 0.9122 0.0000 0.4097
vn 0.1039 0.9758 0.1926
usemtl None
s off
f 2//1 1//1 18//1 19//1
f 4//2 3//2 20//2 21//2
f 6//3 5//3 22//3 23//3
f 8//4 7//4 24//4 25//4
f 10//5 11//5 53//5 52//5
f 12//6 13//6 55//6 54//6
f 14//7 15//7 57//7 56//7
f 16//8 9//8 43//8 58//8
f 7//9 8//9 120//9 119//9
f 5//10 6//10 144//10 143//10
f 4//11 12//11 138//11 136//11
f 2//12 10//12 130//12 128//12
f 9//13 16//13 126//13 125//13
f 15//14 14//14 117//14 118//14
f 12//15 4//15 139//15 141//15
f 10//16 2//16 131//16 133//16
f 97//17 96//17 30//17 31//17
f 95//18 83//18 32//18 33//18
f 94//19 92//19 34//19 27//19
f 93//20 94//20 27//20 28//20
f 1//21 8//21 25//21 18//21
f 7//22 6//22 23//22 24//22
f 5//23 4//23 21//23 22//23
f 3//24 2//24 19//24 20//24
f 28//25 27//25 26//25 36//25
f 30//26 29//26 37//26 38//26
f 32//27 31//27 39//27 40//27
f 34//28 33//28 41//28 42//28
f 98//29 93//29 28//29 29//29
f 92//30 95//30 33//30 34//30
f 83//31 97//31 31//31 32//31
f 96//32 98//32 29//32 30//32
f 38//33 37//33 45//33 46//33
f 40//34 39//34 47//34 48//34
f 42//35 41//35 49//35 50//35
f 37//36 36//36 44//36 45//36
f 27//37 34//37 42//37 26//37
f 33//38 32//38 40//38 41//38
f 31//39 30//39 38//39 39//39
f 29//40 28//40 36//40 37//40
f 35//41 51//41 45//41 44//41
f 46//41 45//41 51//41 47//41
f 47//41 51//41 49//41 48//41
f 49//41 51//41 35//41 50//41
f 36//42 26//42 35//42 44//42
f 26//43 42//43 50//43 35//43
f 41//44 40//44 48//44 49//44
f 39//45 38//45 46//45 47//45
f 56//46 57//46 64//46 63//46
f 58//47 43//47 17//47 65//47
f 43//48 52//48 59//48 17//48
f 53//49 54//49 61//49 60//49
f 15//50 16//50 58//50 57//50
f 13//51 14//51 56//51 55//51
f 11//52 12//52 54//52 53//52
f 9//53 10//53 52//53 43//53
f 17//54 59//54 68//54 67//54
f 60//54 61//54 70//54 69//54
f 62//54 63//54 72//54 71//54
f 64//54 65//54 74//54 73//54
f 54//55 55//55 62//55 61//55
f 52//56 53//56 60//56 59//56
f 57//57 58//57 65//57 64//57
f 55//58 56//58 63//58 62//58
f 71//59 72//59 80//59 79//59
f 73//60 74//60 82//60 81//60
f 68//61 69//61 77//61 76//61
f 70//16 71//16 79//16 78//16
f 65//54 17//54 67//54 74//54
f 63//54 64//54 73//54 72//54
f 61//54 62//54 71//54 70//54
f 59//54 60//54 69//54 68//54
f 76//62 77//62 85//62 84//62
f 78//63 79//63 87//63 86//63
f 80//64 81//64 89//64 88//64
f 82//65 66//65 75//65 90//65
f 69//66 70//66 78//66 77//66
f 67//67 68//67 76//67 66//67
f 74//68 67//68 66//68 82//68
f 72//15 73//15 81//15 80//15
f 75//69 84//69 85//69 91//69
f 86//70 87//70 91//70 85//70
f 87//71 88//71 89//71 91//71
f 89//72 90//72 75//72 91//72
f 81//73 82//73 90//73 89//73
f 79//74 80//74 88//74 87//74
f 77//75 78//75 86//75 85//75
f 66//76 76//76 84//76 75//76
f 25//77 24//77 105//77 106//77
f 24//78 23//78 104//78 105//78
f 97//79 83//79 111//79 109//79
f 23//80 22//80 103//80 104//80
f 98//81 96//81 114//81 110//81
f 96//82 97//82 109//82 114//82
f 22//83 21//83 102//83 103//83
f 83//84 95//84 108//84 111//84
f 102//85 101//85 110//85 114//85
f 104//86 103//86 109//86 111//86
f 106//87 105//87 108//87 112//87
f 101//88 99//88 107//88 110//88
f 99//89 100//89 113//89 107//89
f 100//90 106//90 112//90 113//90
f 105//91 104//91 111//91 108//91
f 103//92 102//92 114//92 109//92
f 95//93 92//93 112//93 108//93
f 18//94 25//94 106//94 100//94
f 93//95 98//95 110//95 107//95
f 19//96 18//96 100//96 99//96
f 94//97 93//97 107//97 113//97
f 20//98 19//98 99//98 101//98
f 92//99 94//99 113//99 112//99
f 21//100 20//100 101//100 102//100
f 115//101 116//101 118//101 117//101
f 14//68 6//68 115//68 117//68
f 6//102 7//102 116//102 115//102
f 7//103 15//103 118//103 116//103
f 119//104 120//104 122//104 121//104
f 8//105 16//105 122//105 120//105
f 16//106 15//106 121//106 122//106
f 15//67 7//67 119//67 121//67
f 124//107 123//107 125//107 126//107
f 16//61 8//61 124//61 126//61
f 1//108 9//108 125//108 123//108
f 8//109 1//109 123//109 124//109
f 127//110 128//110 130//110 129//110
f 1//111 2//111 128//111 127//111
f 9//66 1//66 127//66 129//66
f 10//112 9//112 129//112 130//112
f 131//113 132//113 134//113 133//113
f 11//114 10//114 133//114 134//114
f 3//115 11//115 134//115 132//115
f 2//116 3//116 132//116 131//116
f 135//117 136//117 138//117 137//117
f 3//118 4//118 136//118 135//118
f 11//59 3//59 135//59 137//59
f 12//119 11//119 137//119 138//119
f 139//120 140//120 142//120 141//120
f 13//121 12//121 141//121 142//121
f 5//122 13//122 142//122 140//122
f 4//123 5//123 140//123 139//123
f 143//124 144//124 146//124 145//124
f 6//125 14//125 146//125 144//125
f 14//126 13//126 145//126 146//126
f 13//60 5//60 143//60 145//60
